Coordinates
version=1
nRows=23
nColumns=38
inDegrees=no

Units are S.I. units (second, meters, Newtons, ...)
If the header above contains a line with 'inDegrees', this indicates whether rotational values are in degrees (yes) or radians (no).

endheader
time	pelvis_tilt	pelvis_list	pelvis_rotation	pelvis_tx	pelvis_ty	pelvis_tz	hip_flexion_r	hip_adduction_r	hip_rotation_r	knee_angle_r	ankle_angle_r	subtalar_angle_r	mtp_angle_r	hip_flexion_l	hip_adduction_l	hip_rotation_l	knee_angle_l	ankle_angle_l	subtalar_angle_l	mtp_angle_l	lumbar_extension	lumbar_bending	lumbar_rotation	arm_flex_r	arm_add_r	arm_rot_r	elbow_flex_r	pro_sup_r	wrist_flex_r	wrist_dev_r	arm_flex_l	arm_add_l	arm_rot_l	elbow_flex_l	pro_sup_l	wrist_flex_l	wrist_dev_l
22.93	-3.13003	1.3652	-1.58032	0.694099	-0.564583	0.947825	-0.0529818	-0.210814	-0.326854	0.854268	0.0312328	0	0	-0.0268317	-0.00632185	-0.316475	0.27192	-0.0346598	0	0	-0.383603	-0.0301501	-0.0321937	1.12691	-0.201604	0.831202	0.633287	1.5708	0	0	0.931782	-0.250682	0.230415	0.848487	0.98863	0	0
22.94	-3.13759	1.36413	-1.56676	0.693444	-0.56253	0.948366	-0.0538783	-0.20786	-0.341908	0.832359	0.0445965	0	0	-0.0329432	-0.00726949	-0.312683	0.266489	-0.0342037	0	0	-0.384837	-0.0275228	-0.0377342	1.12499	-0.200054	0.829686	0.634261	1.5708	0	0	0.931195	-0.250112	0.224993	0.847272	0.991309	0	0
22.95	3.13793	1.3629	-1.55404	0.692985	-0.560427	0.948905	-0.0563108	-0.20445	-0.357505	0.806347	0.0586122	0	0	-0.0395461	-0.00846427	-0.310044	0.260819	-0.0335498	0	0	-0.38605	-0.0251587	-0.0423956	1.12257	-0.19838	0.826745	0.635931	1.5708	0	0	0.930393	-0.249532	0.22078	0.845792	0.992499	0	0
22.96	3.13094	1.36161	-1.54221	0.69264	-0.558357	0.949411	-0.0601618	-0.200729	-0.374528	0.776053	0.070211	0	0	-0.0461214	-0.00963628	-0.307218	0.255202	-0.0329823	0	0	-0.387147	-0.0230349	-0.0463881	1.1194	-0.197337	0.823321	0.639258	1.5708	0	0	0.92965	-0.249008	0.217183	0.843935	0.993021	0	0
22.97	3.12366	1.36012	-1.53062	0.692422	-0.556319	0.9499	-0.0654587	-0.196393	-0.392475	0.741635	0.077321	0	0	-0.0527752	-0.0110256	-0.30453	0.249903	-0.0322749	0	0	-0.388431	-0.020971	-0.0495151	1.11572	-0.196716	0.818922	0.64334	1.5708	0	0	0.929279	-0.248257	0.212184	0.841383	0.993974	0	0
22.98	3.11621	1.35851	-1.51978	0.692418	-0.554342	0.950356	-0.0716323	-0.191008	-0.409808	0.703735	0.0809695	0	0	-0.0595338	-0.0126302	-0.302209	0.244674	-0.0312825	0	0	-0.389837	-0.0192122	-0.0517494	1.11195	-0.19589	0.813339	0.647193	1.5708	0	0	0.92912	-0.248164	0.207548	0.83958	0.994704	0	0
22.99	3.11055	1.35908	-1.51162	0.692722	-0.55232	0.950704	-0.0758814	-0.184728	-0.425198	0.663312	0.0839307	0	0	-0.0641275	-0.0138179	-0.299558	0.239037	-0.0312937	0	0	-0.388171	-0.0202137	-0.0536308	1.08755	-0.197134	0.666896	0.729097	1.25837	0	0	0.929208	-0.248601	0.206475	0.838081	0.996124	0	0
23	3.10288	1.35575	-1.50326	0.69308	-0.550539	0.951034	-0.0838437	-0.177277	-0.438153	0.621247	0.0896012	0	0	-0.0728555	-0.0155839	-0.29864	0.233726	-0.0299155	0	0	-0.392074	-0.0171397	-0.0526547	1.10601	-0.195072	0.806974	0.654444	1.5708	0	0	0.929684	-0.249368	0.203571	0.838732	0.99421	0	0
23.01	3.09715	1.35504	-1.49764	0.693729	-0.548757	0.951218	-0.0887951	-0.169045	-0.448095	0.577887	0.0964023	0	0	-0.0781803	-0.0172143	-0.298457	0.229621	-0.0286051	0	0	-0.392565	-0.0169935	-0.0509108	1.10106	-0.194	0.793359	0.658974	1.5708	0	0	0.931179	-0.249767	0.203977	0.837969	0.992509	0	0
23.02	3.09308	1.35472	-1.49486	0.694542	-0.54705	0.951265	-0.0931777	-0.1601	-0.453179	0.534184	0.0997868	0	0	-0.0830371	-0.0183987	-0.298853	0.225737	-0.0267998	0	0	-0.392563	-0.0174475	-0.0480103	1.09702	-0.193755	0.784163	0.663077	1.5708	0	0	0.933066	-0.25066	0.206845	0.837131	0.990697	0	0
23.03	3.08997	1.35492	-1.49415	0.695566	-0.545403	0.951224	-0.0965563	-0.150318	-0.45314	0.490526	0.099287	0	0	-0.0876925	-0.019305	-0.299798	0.221178	-0.0254974	0	0	-0.391686	-0.0186332	-0.0445049	1.09244	-0.193064	0.773722	0.666578	1.5708	0	0	0.93451	-0.25267	0.211933	0.836921	0.987833	0	0
23.04	3.08637	1.35557	-1.49435	0.696805	-0.543842	0.951118	-0.0983576	-0.139716	-0.447702	0.448424	0.0962178	0	0	-0.0917595	-0.0203799	-0.30191	0.216993	-0.0242375	0	0	-0.390228	-0.0201305	-0.0397235	1.08826	-0.192775	0.764788	0.669676	1.5708	0	0	0.935703	-0.254589	0.217376	0.836692	0.982944	0	0
23.05	3.08342	1.35682	-1.49614	0.698149	-0.542321	0.950907	-0.098327	-0.13035	-0.438964	0.413132	0.0885493	0	0	-0.0945852	-0.021348	-0.304951	0.214165	-0.0224588	0	0	-0.388002	-0.0218858	-0.0339568	1.08435	-0.193182	0.75746	0.672956	1.5708	0	0	0.936489	-0.25596	0.22181	0.836636	0.977188	0	0
23.06	3.08557	1.35788	-1.50326	0.69942	-0.540804	0.95072	-0.0970055	-0.125091	-0.431856	0.389512	0.0709811	0	0	-0.0984133	-0.0205817	-0.307714	0.209714	-0.0214356	0	0	-0.38578	-0.0244841	-0.02796	1.08037	-0.194508	0.750922	0.676479	1.5708	0	0	0.936544	-0.256838	0.22556	0.837213	0.971497	0	0
23.07	3.09405	1.35816	-1.51659	0.700598	-0.539293	0.950609	-0.0945986	-0.124688	-0.429145	0.381034	0.0516028	0	0	-0.103713	-0.0180563	-0.310126	0.204224	-0.0207023	0	0	-0.384424	-0.0280227	-0.0221284	1.07672	-0.196962	0.74654	0.680718	1.5708	0	0	0.936003	-0.257009	0.228916	0.838446	0.965864	0	0
23.08	3.10376	1.35777	-1.53194	0.70178	-0.537668	0.950593	-0.0916221	-0.12689	-0.426254	0.386261	0.0430875	0	0	-0.110422	-0.0149104	-0.313424	0.197926	-0.0201063	0	0	-0.383534	-0.0314844	-0.0163075	1.07327	-0.199129	0.74398	0.684935	1.5708	0	0	0.933357	-0.257601	0.230609	0.841839	0.963214	0	0
23.09	3.11069	1.35613	-1.54435	0.702821	-0.53596	0.950807	-0.0914316	-0.128505	-0.421495	0.394408	0.0470948	0	0	-0.119125	-0.0118457	-0.316489	0.190255	-0.020883	0	0	-0.383596	-0.0337588	-0.0107189	1.06968	-0.201165	0.741794	0.688757	1.5708	0	0	0.929349	-0.257692	0.229629	0.845893	0.961709	0	0
23.1	3.11698	1.35241	-1.55234	0.703458	-0.534522	0.951256	-0.0968976	-0.128637	-0.419895	0.39647	0.0492667	0	0	-0.12927	-0.00886213	-0.31416	0.182368	-0.0232233	0	0	-0.386626	-0.0344663	-0.00886548	1.06718	-0.202914	0.739769	0.692863	1.5708	0	0	0.926017	-0.25747	0.226907	0.850556	0.960571	0	0
23.11	3.12265	1.34776	-1.55958	0.704098	-0.533001	0.951835	-0.106685	-0.127356	-0.417833	0.39027	0.0460928	0	0	-0.141343	-0.00575364	-0.311459	0.17288	-0.0264056	0	0	-0.390384	-0.0350265	-0.00731797	1.06467	-0.204421	0.737572	0.697285	1.5708	0	0	0.921844	-0.257011	0.224082	0.855628	0.95773	0	0
23.12	3.12533	1.34497	-1.56482	0.70489	-0.531453	0.952276	-0.115568	-0.125393	-0.41512	0.381018	0.0425542	0	0	-0.151342	-0.00342988	-0.310769	0.163816	-0.028748	0	0	-0.391869	-0.0352742	-0.00463848	1.06225	-0.20585	0.736702	0.701072	1.5708	0	0	0.91643	-0.256373	0.219782	0.861231	0.955656	0	0
23.13	3.1242	1.34375	-1.56686	0.705747	-0.529995	0.952603	-0.121859	-0.123853	-0.413893	0.373421	0.0403691	0	0	-0.159312	-0.00211311	-0.310613	0.15539	-0.0307607	0	0	-0.391664	-0.034717	-0.00149159	1.0599	-0.206811	0.735894	0.704545	1.5708	0	0	0.909996	-0.254993	0.210874	0.867218	0.955788	0	0
23.14	3.12089	1.34399	-1.56676	0.706615	-0.528643	0.952848	-0.125159	-0.123136	-0.414811	0.368556	0.0384111	0	0	-0.164774	-0.00172252	-0.311921	0.148467	-0.0323398	0	0	-0.38998	-0.0336176	0.00173793	1.05746	-0.207206	0.73447	0.707519	1.5708	0	0	0.902895	-0.253008	0.200188	0.873218	0.956867	0	0
23.15	3.11776	1.34525	-1.56645	0.707502	-0.527313	0.953003	-0.126835	-0.122823	-0.416875	0.365012	0.0369794	0	0	-0.16836	-0.00182727	-0.314318	0.14291	-0.0333684	0	0	-0.387153	-0.032575	0.00452346	1.05484	-0.207232	0.733086	0.710242	1.5708	0	0	0.895261	-0.25143	0.189439	0.87998	0.957954	0	0
